<?xml version="1.0" encoding="UTF-8"?>
<svg width="16px" height="16px" viewBox="-4 0 20 16" version="1.1" xmlns="http://www.w3.org/2000/svg" xmlns:xlink="http://www.w3.org/1999/xlink">
    <title>Cedar-Policy_16</title>
    <g id="Cedar-Policy_16" stroke="none" stroke-width="1" fill="none" fill-rule="evenodd">
        <path d="M15,10 L15,9 L11,9 L11,7 L10,7 L10,15 L11,15 L11,13 L15,13 L15,12 L11,12 L11,10 L15,10 Z M7.232,3.076 L5.292,5.017 L4.499,4.223 L3.792,4.93 L4.938,6.077 C5.032,6.171 5.159,6.224 5.292,6.224 C5.425,6.224 5.552,6.171 5.646,6.077 L7.939,3.783 L7.232,3.076 Z M6.659,9.456 L5.722,10.393 L4.785,9.456 L4.078,10.163 L5.015,11.1 L4.078,12.037 L4.785,12.744 L5.722,11.807 L6.659,12.744 L7.366,12.037 L6.429,11.1 L7.366,10.163 L6.659,9.456 Z M2,15 L9,15 L9,16 L1.5,16 C1.224,16 1,15.776 1,15.5 L1,0.5 C1,0.224 1.224,0 1.5,0 L12.5,0 C12.776,0 13,0.224 13,0.5 L13,6 L12,6 L12,1 L2,1 L2,15 Z" id="Fill-7" fill="#232F3E"></path>
    </g>
</svg>